# 3ds Max Wavefront OBJ Exporter v0.97b - (c)2007 guruware
# File Created: 29.12.2012 13:11:38

mtllib ???1.mtl

#
# object Plane002
#

v  12.1483 25.4624 72.0798
v  -0.2849 -11.3105 59.5163
v  -0.2849 25.0855 -61.8234
v  60.6838 25.5064 72.0244
v  -12.7181 25.4624 72.0798
v  -61.2536 25.5064 72.0244
# 6 vertices

vn -0.5006 0.8646 0.0440
vn -0.0000 0.9578 0.2873
vn 0.0000 0.9981 0.0613
vn -0.0009 1.0000 -0.0027
vn 0.5006 0.8646 0.0440
vn 0.0009 1.0000 -0.0027
# 6 vertex normals

vt 0.0000 0.0000 0.0000
vt 0.5000 0.0000 0.0000
vt 0.5000 1.0000 0.0000
vt 0.0000 1.0000 0.0000
# 4 texture coords

g Plane002
usemtl wire_225088199
s 1
f 3/3/3 2/2/2 1/1/1 
f 1/1/1 4/4/4 3/3/3 
f 2/2/2 3/3/3 5/1/5 
f 6/4/6 5/1/5 3/3/3 
# 0 polygons - 4 triangles

